<?xml version="1.0" encoding="utf-8"?>
<svg xmlns="http://www.w3.org/2000/svg" version="1.1" viewBox="0 0 1400 690">
	<title>The titlepage for the Standard Ebooks edition of Beyond Good and Evil, by Friedrich Nietzsche. Translated by Helen Zimmern</title>
	<g aria-label="BEYOND GOOD">
		<path d="M305.55,52.81l23.95,0.00c13.29,0.00,23.77,4.96,23.77,19.65c0.00,7.11-3.09,13.19-9.64,16.56c9.64,1.68,16.47,7.02,16.47,19.46c0.00,12.73-9.26,21.52-25.26,21.52l-29.29,0.00l0.00-77.19z  M323.14,83.03l1.40,0.00c7.58,0.00,11.70-2.34,11.70-8.80c0.00-5.52-4.02-7.86-11.70-7.86l-1.40,0.00l0.00,16.65z  M323.14,116.43l5.52,0.00c8.33,0.00,12.91-2.53,12.91-8.61c0.00-7.11-4.58-9.64-12.91-9.64l-5.52,0.00l0.00,18.25z"/>
		<path d="M417.03,52.81l0.00,15.44l-26.57,0.00l0.00,15.35l25.45,0.00l0.00,15.44l-25.45,0.00l0.00,15.53l26.57,0.00l0.00,15.44l-44.16,0.00l0.00-77.19l44.16,0.00z"/>
		<path d="M423.71,52.81l21.15,0.00l16.09,24.70l16.09-24.70l21.15,0.00l-28.44,42.57l0.00,34.62l-17.59,0.00l0.00-34.62z"/>
		<path d="M502.54,91.36c0.00-22.55,17.68-39.95,38.92-39.95c21.43,0.00,38.83,17.40,38.83,39.95s-16.65,40.05-38.83,40.05c-22.83,0.00-38.92-17.50-38.92-40.05z  M521.53,91.36c0.00,11.51,5.52,23.02,19.93,23.02c14.04,0.00,19.84-11.51,19.84-23.02s-6.18-23.02-19.84-23.02c-13.57,0.00-19.93,11.51-19.93,23.02z"/>
		<path d="M610.65,82.09l0.00,47.91l-17.59,0.00l0.00-77.19l17.59,0.00l30.69,47.91l0.19,0.00l0.00-47.91l17.59,0.00l0.00,77.19l-17.59,0.00l-30.69-47.91l-0.19,0.00z"/>
		<path d="M675.35,52.81l22.36,0.00c21.15,0.00,38.92,16.09,38.92,38.55c0.00,22.55-17.68,38.64-38.92,38.64l-22.36,0.00l0.00-77.19z  M692.94,114.28l2.71,0.00c13.01,0.00,21.89-9.92,21.99-22.83c0.00-12.91-8.89-22.92-21.99-22.92l-2.71,0.00l0.00,45.75z"/>
		<path d="M849.74,86.77l0.00,16.75c-4.21,19.56-20.49,27.88-35.65,27.88c-20.77,0.00-37.61-17.87-37.61-39.95c0.00-22.18,15.91-40.05,37.61-40.05c13.57,0.00,23.02,5.05,29.75,13.19l-11.51,12.63c-4.49-7.20-10.39-9.92-17.22-9.92c-10.85,0.00-19.65,10.76-19.65,24.14c0.00,13.10,8.80,23.77,19.65,23.77c8.42,0.00,16.75-5.43,16.75-14.88l-17.78,0.00l0.00-13.57l35.65,0.00z"/>
		<path d="M859.05,91.36c0.00-22.55,17.68-39.95,38.92-39.95c21.43,0.00,38.83,17.40,38.83,39.95s-16.65,40.05-38.83,40.05c-22.83,0.00-38.92-17.50-38.92-40.05z  M878.04,91.36c0.00,11.51,5.52,23.02,19.93,23.02c14.04,0.00,19.84-11.51,19.84-23.02s-6.18-23.02-19.84-23.02c-13.57,0.00-19.93,11.51-19.93,23.02z"/>
		<path d="M946.11,91.36c0.00-22.55,17.68-39.95,38.92-39.95c21.43,0.00,38.83,17.40,38.83,39.95s-16.65,40.05-38.83,40.05c-22.83,0.00-38.92-17.50-38.92-40.05z  M965.10,91.36c0.00,11.51,5.52,23.02,19.93,23.02c14.04,0.00,19.84-11.51,19.84-23.02s-6.18-23.02-19.84-23.02c-13.57,0.00-19.93,11.51-19.93,23.02z"/>
		<path d="M1036.63,52.81l22.36,0.00c21.15,0.00,38.92,16.09,38.92,38.55c0.00,22.55-17.68,38.64-38.92,38.64l-22.36,0.00l0.00-77.19z  M1054.22,114.28l2.71,0.00c13.01,0.00,21.89-9.92,21.99-22.83c0.00-12.91-8.89-22.92-21.99-22.92l-2.71,0.00l0.00,45.75z"/>
	</g>
	<g aria-label="AND EVIL">
		<path d="M500.04,152.81l31.16,77.19l-18.90,0.00l-5.71-15.44l-29.38,0.00l-5.71,15.44l-18.90,0.00l31.16-77.19l16.28,0.00z  M500.61,199.12l-8.61-22.46l-0.19,0.00l-8.61,22.46l17.40,0.00z"/>
		<path d="M556.79,182.09l0.00,47.91l-17.59,0.00l0.00-77.19l17.59,0.00l30.69,47.91l0.19,0.00l0.00-47.91l17.59,0.00l0.00,77.19l-17.59,0.00l-30.69-47.91l-0.19,0.00z"/>
		<path d="M621.48,152.81l22.36,0.00c21.15,0.00,38.92,16.09,38.92,38.55c0.00,22.55-17.68,38.64-38.92,38.64l-22.36,0.00l0.00-77.19z  M639.07,214.28l2.71,0.00c13.01,0.00,21.89-9.92,21.99-22.83c0.00-12.91-8.89-22.92-21.99-22.92l-2.71,0.00l0.00,45.75z"/>
		<path d="M770.24,152.81l0.00,15.44l-26.57,0.00l0.00,15.35l25.45,0.00l0.00,15.44l-25.45,0.00l0.00,15.53l26.57,0.00l0.00,15.44l-44.16,0.00l0.00-77.19l44.16,0.00z"/>
		<path d="M809.49,230.00l-32.37-77.19l19.84,0.00l19.46,50.71l19.46-50.71l19.84,0.00l-32.37,77.19l-13.85,0.00z"/>
		<path d="M881.30,152.81l0.00,77.19l-17.59,0.00l0.00-77.19l17.59,0.00z"/>
		<path d="M915.11,152.81l0.00,61.75l26.57,0.00l0.00,15.44l-44.16,0.00l0.00-77.19l17.59,0.00z"/>
	</g>
	<g aria-label="FRIEDRICH NIETZSCHE">
		<path d="M289.77,332.11l0.00,11.58l-20.28,0.00l0.00,11.51l18.74,0.00l0.00,11.58l-18.74,0.00l0.00,23.23l-13.19,0.00l0.00-57.89l33.47,0.00z"/>
		<path d="M301.09,332.11l20.70,0.00c10.74,0.00,18.88,5.82,18.88,17.19c0.00,8.70-4.77,14.53-11.86,16.77l19.93,23.93l-16.77,0.00l-17.68-22.88l0.00,22.88l-13.19,0.00l0.00-57.89z  M314.28,357.79l1.54,0.00c4.98,0.00,10.95-0.35,10.95-7.58s-5.96-7.58-10.95-7.58l-1.54,0.00l0.00,15.16z"/>
		<path d="M369.53,332.11l0.00,57.89l-13.19,0.00l0.00-57.89l13.19,0.00z"/>
		<path d="M416.07,332.11l0.00,11.58l-19.93,0.00l0.00,11.51l19.09,0.00l0.00,11.58l-19.09,0.00l0.00,11.65l19.93,0.00l0.00,11.58l-33.12,0.00l0.00-57.89l33.12,0.00z"/>
		<path d="M428.65,332.11l16.77,0.00c15.86,0.00,29.19,12.07,29.19,28.91c0.00,16.91-13.26,28.98-29.19,28.98l-16.77,0.00l0.00-57.89z  M441.84,378.21l2.04,0.00c9.75,0.00,16.42-7.44,16.49-17.12c0.00-9.68-6.67-17.19-16.49-17.19l-2.04,0.00l0.00,34.32z"/>
		<path d="M485.44,332.11l20.70,0.00c10.74,0.00,18.88,5.82,18.88,17.19c0.00,8.70-4.77,14.53-11.86,16.77l19.93,23.93l-16.77,0.00l-17.68-22.88l0.00,22.88l-13.19,0.00l0.00-57.89z  M498.63,357.79l1.54,0.00c4.98,0.00,10.95-0.35,10.95-7.58s-5.96-7.58-10.95-7.58l-1.54,0.00l0.00,15.16z"/>
		<path d="M553.88,332.11l0.00,57.89l-13.19,0.00l0.00-57.89l13.19,0.00z"/>
		<path d="M595.86,378.07c6.74,0.00,11.37-3.58,11.37-3.58l5.61,11.23s-6.46,5.33-19.02,5.33c-16.35,0.00-31.37-13.33-31.37-29.89c0.00-16.63,14.95-30.11,31.37-30.11c12.56,0.00,19.02,5.33,19.02,5.33l-5.61,11.23s-4.63-3.58-11.37-3.58c-13.26,0.00-19.09,9.26-19.09,16.98c0.00,7.79,5.82,17.05,19.09,17.05z"/>
		<path d="M636.09,366.77l0.00,23.23l-13.19,0.00l0.00-57.89l13.19,0.00l0.00,23.09l18.67,0.00l0.00-23.09l13.19,0.00l0.00,57.89l-13.19,0.00l0.00-23.23l-18.67,0.00z"/>
		<path d="M718.72,354.07l0.00,35.93l-13.19,0.00l0.00-57.89l13.19,0.00l23.02,35.93l0.14,0.00l0.00-35.93l13.19,0.00l0.00,57.89l-13.19,0.00l-23.02-35.93l-0.14,0.00z"/>
		<path d="M781.68,332.11l0.00,57.89l-13.19,0.00l0.00-57.89l13.19,0.00z"/>
		<path d="M828.23,332.11l0.00,11.58l-19.93,0.00l0.00,11.51l19.09,0.00l0.00,11.58l-19.09,0.00l0.00,11.65l19.93,0.00l0.00,11.58l-33.12,0.00l0.00-57.89l33.12,0.00z"/>
		<path d="M837.16,343.68l0.00-11.58l40.70,0.00l0.00,11.58l-13.75,0.00l0.00,46.32l-13.19,0.00l0.00-46.32l-13.75,0.00z"/>
		<path d="M936.26,332.11l-28.70,46.32l26.81,0.00l0.00,11.58l-49.82,0.00l28.63-46.32l-24.56,0.00l0.00-11.58l47.65,0.00z"/>
		<path d="M966.53,331.05c10.53,0.00,17.96,5.47,17.96,5.47l-5.33,10.53s-5.75-4.00-11.72-4.00c-4.49,0.00-6.88,2.04-6.88,5.19c0.00,3.23,5.47,5.54,12.07,8.35c6.46,2.74,13.54,8.21,13.54,15.79c0.00,13.82-10.53,18.67-21.82,18.67c-13.54,0.00-21.75-7.65-21.75-7.65l6.60-11.09s7.72,6.53,14.18,6.53c2.88,0.00,8.35-0.28,8.35-5.68c0.00-4.21-6.18-6.11-13.05-9.54c-6.95-3.44-11.02-8.84-11.02-14.88c0.00-10.81,9.54-17.68,18.88-17.68z"/>
		<path d="M1025.91,378.07c6.74,0.00,11.37-3.58,11.37-3.58l5.61,11.23s-6.46,5.33-19.02,5.33c-16.35,0.00-31.37-13.33-31.37-29.89c0.00-16.63,14.95-30.11,31.37-30.11c12.56,0.00,19.02,5.33,19.02,5.33l-5.61,11.23s-4.63-3.58-11.37-3.58c-13.26,0.00-19.09,9.26-19.09,16.98c0.00,7.79,5.82,17.05,19.09,17.05z"/>
		<path d="M1066.14,366.77l0.00,23.23l-13.19,0.00l0.00-57.89l13.19,0.00l0.00,23.09l18.67,0.00l0.00-23.09l13.19,0.00l0.00,57.89l-13.19,0.00l0.00-23.23l-18.67,0.00z"/>
		<path d="M1144.54,332.11l0.00,11.58l-19.93,0.00l0.00,11.51l19.09,0.00l0.00,11.58l-19.09,0.00l0.00,11.65l19.93,0.00l0.00,11.58l-33.12,0.00l0.00-57.89l33.12,0.00z"/>
	</g>
	<g aria-label="translated by">
		<path d="M594.73,563.42c0.00-0.85,1.62-0.81,3.49-2.76c1.70-1.79,1.79-2.34,2.47-2.34c0.21,0.00,0.43,0.13,0.43,0.51c0.00,0.55-0.77,2.55-0.77,3.19c0.00,0.26,0.09,0.30,1.49,0.30c1.66,0.00,2.00-0.04,2.47-0.04c0.89,0.00,1.11,0.30,1.11,0.81c0.00,0.98-0.26,1.23-1.02,1.23c-0.68,0.00-2.51-0.21-3.44-0.21c-1.23,0.00-1.11,0.77-1.36,2.51c-0.38,2.64-1.36,8.16-1.36,8.84c0.00,2.25,1.57,2.34,1.74,2.34c2.34,0.00,3.32-1.87,4.00-1.87c0.13,0.00,0.47,0.00,0.47,0.60c0.00,1.11-3.61,4.00-6.25,4.00c-1.15,0.00-2.72-0.68-2.72-4.00c0.00-3.91,1.79-10.80,1.79-11.94c0.00-0.89-2.51,0.04-2.51-1.15z"/>
		<path d="M606.84,567.42c0.00-4.85,3.61-5.87,4.00-5.87c0.89,0.00,1.32,0.81,1.57,1.49c1.06,2.76,1.11,2.81,1.19,2.81c0.30,0.00,2.42-4.38,5.57-4.38c1.11,0.00,1.57,0.72,1.57,1.32c0.00,0.55-0.34,1.11-0.47,1.57c-0.09,0.30-0.17,1.62-0.94,1.62c-0.94,0.00-0.77-1.79-2.30-1.79c-1.91,0.00-2.98,5.57-3.19,7.35l-0.21,1.40c-0.94,7.23-0.85,7.23-2.38,7.23l-0.21,0.00c-0.43,0.00-1.28-0.09-1.28-1.11c0.00-1.70,1.83-7.95,1.83-11.14c0.00-2.13-0.68-2.89-1.45-2.89c-1.74,0.00-2.08,2.55-2.34,2.85c-0.13,0.13-0.26,0.26-0.47,0.26c-0.17,0.00-0.51-0.13-0.51-0.72z"/>
		<path d="M620.45,575.15c0.00-2.38,1.06-4.80,2.38-6.93c1.53-2.42,3.49-4.46,5.74-5.53c1.15-0.55,2.00-0.77,3.10-0.77c1.32,0.00,2.21,0.47,3.61,0.47c0.85,0.00,1.36-2.08,2.21-2.08c0.26,0.00,0.47,0.17,0.47,0.64c0.00,0.68-0.55,1.70-0.85,2.93c-0.38,1.57-0.64,3.53-0.98,5.44c-0.34,1.87-0.77,3.83-0.77,5.44c0.00,1.11,0.64,2.51,1.45,2.51c1.40,0.00,2.30-2.76,3.10-2.76c0.34,0.00,0.38,0.30,0.38,0.47c0.00,0.43-0.21,1.06-0.77,1.83c-1.06,1.53-2.98,3.49-4.12,3.49c-2.72,0.00-2.34-4.76-2.64-4.76c-0.21,0.00-3.74,5.10-7.78,5.10s-4.55-2.72-4.55-5.48z  M623.42,574.90c0.00,2.13,1.53,3.40,3.32,3.40c3.06,0.00,5.06-3.06,5.44-3.83c1.02-2.04,2.17-9.86,2.17-9.99c0.00-1.19-1.91-1.49-2.81-1.49c-1.74,0.00-4.00,1.28-5.27,3.44c-1.23,2.04-2.25,3.95-2.64,6.16c-0.13,0.77-0.21,1.53-0.21,2.30z"/>
		<path d="M641.70,566.35c0.00-1.66,2.55-4.85,4.17-4.85c2.47,0.00,1.57,4.46,1.96,4.46c0.26,0.00,0.55-0.94,2.13-2.13c1.15-0.89,3.40-2.42,5.19-2.42c2.98,0.00,3.57,2.64,3.57,5.31c0.00,2.98-0.72,7.48-0.72,8.93c0.00,1.19,0.34,1.53,0.81,1.53c0.72,0.00,1.70-0.94,1.70-0.94c0.51-0.64,0.68-1.15,1.32-1.15c0.30,0.00,0.38,0.26,0.38,0.51c0.00,1.66-3.74,4.63-5.61,4.63c-0.85,0.00-1.57-1.19-1.57-2.68c0.00-3.23,0.89-8.93,0.89-10.50c0.00-0.68-0.21-3.49-2.98-3.49c-0.98,0.00-1.79,0.47-2.76,1.87c-1.83,2.59-1.32,2.21-2.34,7.69c-1.06,5.74-0.77,5.23-0.85,5.82c-0.13,0.94-0.47,1.11-1.57,1.11c-1.15,0.00-1.49-0.09-1.49-1.32c0.00-1.79,1.87-8.37,1.87-11.65c0.00-1.49-0.55-2.34-0.98-2.34c-1.32,0.00-1.79,2.38-2.72,2.38c-0.30,0.00-0.38-0.34-0.38-0.81z"/>
		<path d="M663.68,577.70c0.00-1.32,0.85-1.53,1.36-1.53c2.17,0.00,1.45,2.93,4.04,2.93c3.10,0.00,3.40-2.21,3.40-2.72c0.00-2.00-1.40-3.23-2.93-4.76c-1.70-1.74-3.32-2.85-3.32-5.40c0.00-2.85,2.47-4.80,5.78-4.80c2.30,0.00,3.95,0.55,3.95,2.21c0.00,1.32-1.40,1.45-1.62,1.45c-1.53,0.00-1.70-2.38-3.36-2.38c-1.62,0.00-2.25,0.98-2.25,2.25c0.00,1.62,2.34,3.36,3.36,4.46c1.32,1.49,2.93,2.68,2.93,5.53c0.00,1.53-1.19,5.57-6.63,5.57c-1.66,0.00-4.72-0.55-4.72-2.81z"/>
		<path d="M678.72,576.34c0.00-2.42,1.11-7.44,1.19-8.12c0.38-2.68,0.60-5.70,1.02-8.42c0.72-4.59,1.36-8.42,1.36-8.93s-0.43-0.85-1.06-0.85s-0.72,0.04-1.23,0.04c-0.85,0.00-1.23-0.13-1.23-0.60c0.00-0.21,0.09-0.55,0.64-0.60c3.10-0.21,4.04-0.64,5.14-0.64c0.68,0.00,0.89,0.26,0.89,0.68c0.00,0.60-0.30,1.15-0.43,1.96c-1.57,8.25-0.85,6.67-2.21,15.81c-0.72,5.02-1.23,7.69-1.23,9.14s0.13,1.66,0.68,1.66c2.34,0.00,2.76-3.02,3.87-3.02c0.30,0.00,0.51,0.26,0.51,0.68s-1.11,1.87-2.13,3.06c-1.11,1.28-2.89,2.13-3.70,2.13c-0.85,0.00-2.08,0.00-2.08-4.00z"/>
		<path d="M689.22,575.15c0.00-2.38,1.06-4.80,2.38-6.93c1.53-2.42,3.49-4.46,5.74-5.53c1.15-0.55,2.00-0.77,3.10-0.77c1.32,0.00,2.21,0.47,3.61,0.47c0.85,0.00,1.36-2.08,2.21-2.08c0.26,0.00,0.47,0.17,0.47,0.64c0.00,0.68-0.55,1.70-0.85,2.93c-0.38,1.57-0.64,3.53-0.98,5.44c-0.34,1.87-0.77,3.83-0.77,5.44c0.00,1.11,0.64,2.51,1.45,2.51c1.40,0.00,2.30-2.76,3.10-2.76c0.34,0.00,0.38,0.30,0.38,0.47c0.00,0.43-0.21,1.06-0.77,1.83c-1.06,1.53-2.98,3.49-4.12,3.49c-2.72,0.00-2.34-4.76-2.64-4.76c-0.21,0.00-3.74,5.10-7.78,5.10s-4.55-2.72-4.55-5.48z  M692.20,574.90c0.00,2.13,1.53,3.40,3.32,3.40c3.06,0.00,5.06-3.06,5.44-3.83c1.02-2.04,2.17-9.86,2.17-9.99c0.00-1.19-1.91-1.49-2.81-1.49c-1.74,0.00-4.00,1.28-5.27,3.44c-1.23,2.04-2.25,3.95-2.64,6.16c-0.13,0.77-0.21,1.53-0.21,2.30z"/>
		<path d="M711.12,563.42c0.00-0.85,1.62-0.81,3.49-2.76c1.70-1.79,1.79-2.34,2.47-2.34c0.21,0.00,0.43,0.13,0.43,0.51c0.00,0.55-0.77,2.55-0.77,3.19c0.00,0.26,0.09,0.30,1.49,0.30c1.66,0.00,2.00-0.04,2.47-0.04c0.89,0.00,1.11,0.30,1.11,0.81c0.00,0.98-0.26,1.23-1.02,1.23c-0.68,0.00-2.51-0.21-3.44-0.21c-1.23,0.00-1.11,0.77-1.36,2.51c-0.38,2.64-1.36,8.16-1.36,8.84c0.00,2.25,1.57,2.34,1.74,2.34c2.34,0.00,3.32-1.87,4.00-1.87c0.13,0.00,0.47,0.00,0.47,0.60c0.00,1.11-3.61,4.00-6.25,4.00c-1.15,0.00-2.72-0.68-2.72-4.00c0.00-3.91,1.79-10.80,1.79-11.94c0.00-0.89-2.51,0.04-2.51-1.15z"/>
		<path d="M723.36,573.75c0.00-3.66,1.87-7.31,4.80-10.03c1.57-1.49,3.53-2.25,5.91-2.25c2.00,0.00,3.70,1.28,3.70,3.15c0.00,3.06-3.32,4.80-4.12,5.14c-0.38,0.17-2.68,1.11-6.67,1.15c-0.60,0.00-0.72,0.64-0.72,1.74c0.00,3.19,1.91,5.31,6.12,5.31c2.42,0.00,4.12-1.83,4.59-1.83c0.34,0.00,0.51,0.17,0.51,0.43c0.00,0.98-3.70,3.95-7.40,3.95c-5.40,0.00-6.72-2.98-6.72-6.76z  M726.84,569.33c0.00,0.30,0.09,0.85,0.38,0.85c4.12,0.00,7.61-2.76,7.61-5.44c0.00-1.62-1.53-2.00-2.25-2.00c-1.06,0.00-2.38,0.85-3.49,2.00c-1.28,1.32-2.25,4.04-2.25,4.59z"/>
		<path d="M739.81,574.69c0.00-6.59,5.53-12.92,10.58-12.92c1.11,0.00,1.96,0.55,3.15,0.55c0.13,0.00,1.53-11.18,1.53-11.48c0.00-0.64-0.60-1.06-1.23-1.06c-0.47,0.00-1.45,0.04-1.49,0.04c-0.43,0.00-0.68-0.17-0.68-0.47c0.00-0.72,1.49-0.55,2.68-0.85c2.38-0.60,2.13-0.68,3.27-0.68c0.38,0.00,0.68,0.34,0.68,0.72c0.00,1.11-0.43,2.47-2.81,19.85c-0.47,3.23-0.89,5.91-0.89,7.18c0.00,0.94,0.13,1.83,1.11,1.83c1.87,0.00,2.85-2.64,3.53-2.64c0.34,0.00,0.47,0.21,0.47,0.38c0.00,0.89-2.68,5.19-5.44,5.19c-2.98,0.00-2.00-4.76-2.59-4.76c-0.38,0.00-2.55,4.76-6.76,4.76c-3.61,0.00-5.10-2.47-5.10-5.65z  M742.78,573.50c0.00,2.47,1.02,4.38,3.61,4.38c1.53,0.00,3.19-0.81,4.29-2.21c1.70-2.13,2.34-9.61,2.34-11.31c0.00-1.15-1.70-1.70-2.85-1.70c-3.91,0.00-7.40,6.38-7.40,10.84z"/>
		<path d="M771.05,576.98c0.00-2.72,0.98-7.14,1.57-10.58c0.77-4.42,1.28-8.54,1.91-11.69c0.38-1.83,0.64-3.32,0.64-4.34c0.00-0.21-0.21-0.51-1.06-0.51c-0.64,0.00-1.11,0.09-1.74,0.09c-0.47,0.00-0.81,0.00-0.81-0.60c0.00-0.85,1.19-0.81,3.15-1.06c1.66-0.21,2.42-0.47,2.68-0.47c0.47,0.00,0.81,0.30,0.81,0.77c0.00,0.77-2.72,13.43-2.72,16.49c0.00,0.30,0.13,0.64,0.21,0.64c0.60,0.00,2.59-3.95,7.48-3.95c3.19,0.00,4.68,2.64,4.68,5.40c0.00,5.78-5.02,13.39-11.60,13.39c-2.51,0.00-5.19-1.11-5.19-3.57z  M773.86,576.47c0.00,1.45,0.64,2.89,3.27,2.89c3.83,0.00,7.74-6.12,7.74-11.01c0.00-2.38-1.83-4.34-4.17-4.34c-1.02,0.00-3.78,0.43-5.14,4.12c-1.23,3.36-1.70,7.91-1.70,8.33z"/>
		<path d="M789.50,585.31c0.00-0.72,0.64-1.40,1.36-1.40c1.70,0.00,1.74,1.40,3.70,1.40c2.47,0.00,5.27-5.44,5.27-7.06c0.00-2.38-4.68-13.35-6.93-13.35c-2.47,0.00-1.57,3.19-2.85,3.19c-0.26,0.00-0.43-0.21-0.43-0.94c0.00-1.79,0.85-5.48,3.44-5.48c4.12,0.00,8.16,12.07,8.63,12.07c0.60,0.00,1.53-4.55,1.53-7.40c0.00-1.23-1.06-2.08-1.06-3.23c0.00-0.77,0.43-1.57,1.45-1.57c0.94,0.00,1.66,0.94,1.66,2.25c0.00,1.91-1.02,7.78-3.53,14.11c-2.00,5.06-4.72,9.90-8.71,9.90c-1.83,0.00-3.53-0.55-3.53-2.51z"/>
	</g>
	<g aria-label="HELEN ZIMMERN">
		<path d="M478.63,624.51l0.00,15.49l-8.80,0.00l0.00-38.60l8.80,0.00l0.00,15.39l12.44,0.00l0.00-15.39l8.80,0.00l0.00,38.60l-8.80,0.00l0.00-15.49l-12.44,0.00z"/>
		<path d="M532.57,601.40l0.00,7.72l-13.29,0.00l0.00,7.67l12.73,0.00l0.00,7.72l-12.73,0.00l0.00,7.77l13.29,0.00l0.00,7.72l-22.08,0.00l0.00-38.60l22.08,0.00z"/>
		<path d="M551.42,601.40l0.00,30.88l13.29,0.00l0.00,7.72l-22.08,0.00l0.00-38.60l8.80,0.00z"/>
		<path d="M596.13,601.40l0.00,7.72l-13.29,0.00l0.00,7.67l12.73,0.00l0.00,7.72l-12.73,0.00l0.00,7.77l13.29,0.00l0.00,7.72l-22.08,0.00l0.00-38.60l22.08,0.00z"/>
		<path d="M614.98,616.05l0.00,23.95l-8.80,0.00l0.00-38.60l8.80,0.00l15.35,23.95l0.09,0.00l0.00-23.95l8.80,0.00l0.00,38.60l-8.80,0.00l-15.35-23.95l-0.09,0.00z"/>
		<path d="M700.02,601.40l-19.13,30.88l17.87,0.00l0.00,7.72l-33.22,0.00l19.09-30.88l-16.37,0.00l0.00-7.72l31.77,0.00z"/>
		<path d="M717.37,601.40l0.00,38.60l-8.80,0.00l0.00-38.60l8.80,0.00z"/>
		<path d="M759.89,640.00l-1.82-22.88l-0.23,0.00l-7.91,22.64l-5.24,0.00l-7.91-22.64l-0.23,0.00l-1.82,22.88l-8.80,0.00l3.46-38.60l9.36,0.00l8.56,22.27l8.56-22.27l9.36,0.00l3.46,38.60l-8.80,0.00z"/>
		<path d="M809.15,640.00l-1.82-22.88l-0.23,0.00l-7.91,22.64l-5.24,0.00l-7.91-22.64l-0.23,0.00l-1.82,22.88l-8.80,0.00l3.46-38.60l9.36,0.00l8.56,22.27l8.56-22.27l9.36,0.00l3.46,38.60l-8.80,0.00z"/>
		<path d="M848.58,601.40l0.00,7.72l-13.29,0.00l0.00,7.67l12.73,0.00l0.00,7.72l-12.73,0.00l0.00,7.77l13.29,0.00l0.00,7.72l-22.08,0.00l0.00-38.60l22.08,0.00z"/>
		<path d="M858.64,601.40l13.80,0.00c7.16,0.00,12.58,3.88,12.58,11.46c0.00,5.80-3.18,9.68-7.91,11.18l13.29,15.95l-11.18,0.00l-11.79-15.25l0.00,15.25l-8.80,0.00l0.00-38.60z  M867.43,618.53l1.03,0.00c3.32,0.00,7.30-0.23,7.30-5.05s-3.98-5.05-7.30-5.05l-1.03,0.00l0.00,10.11z"/>
		<path d="M905.93,616.05l0.00,23.95l-8.80,0.00l0.00-38.60l8.80,0.00l15.35,23.95l0.09,0.00l0.00-23.95l8.80,0.00l0.00,38.60l-8.80,0.00l-15.35-23.95l-0.09,0.00z"/>
	</g>
</svg>
