<?xml version="1.0" encoding="UTF-8"?>
<svg xmlns="http://www.w3.org/2000/svg" xmlns:se="https://standardebooks.org/vocab/1.0" version="1.1" viewBox="0 0 1400 690" se:generated-from="dbc6a868fc695d2efd9d7f9fd8089d4fb3ed40c6">
	<path d="M 305.52265,52.807016 305.52265,130 334.8092,130 C 350.8092,130 360.07236,121.20468 360.07236,108.47953 360.07236,96.035087 353.24195,90.701754 343.60453,89.017543 350.15423,85.649122 353.24195,79.567251 353.24195,72.456139 353.24195,57.766081 342.76242,52.807016 329.47587,52.807016 L 305.52265,52.807016 Z M 323.1133,83.029239 323.1133,66.374268 324.51681,66.374268 C 332.18932,66.374268 336.21271,68.713449 336.21271,74.233917 336.21271,80.690058 332.09575,83.029239 324.51681,83.029239 L 323.1133,83.029239 Z M 323.1133,116.43275 323.1133,98.187134 328.63377,98.187134 C 336.96125,98.187134 341.54605,100.71345 341.54605,107.82456 341.54605,113.90643 336.96125,116.43275 328.63377,116.43275 L 323.1133,116.43275 Z"/>
	<path d="M 417.00365,52.807016 372.83991,52.807016 372.83991,130 417.00365,130 417.00365,114.5614 390.43055,114.5614 390.43055,99.029239 415.88084,99.029239 415.88084,83.590642 390.43055,83.590642 390.43055,68.245613 417.00365,68.245613 417.00365,52.807016 Z"/>
	<path d="M 423.69517,52.807016 452.13961,95.380116 452.13961,130 469.73026,130 469.73026,95.380116 498.1747,52.807016 477.0285,52.807016 460.93494,77.508771 444.84137,52.807016 423.69517,52.807016 Z"/>
	<path d="M 502.55044,91.356724 C 502.55044,113.90643 518.64401,131.40351 541.47442,131.40351 563.64986,131.40351 580.30483,113.90643 580.30483,91.356724 580.30483,68.807016 562.90132,51.403507 541.47442,51.403507 520.23465,51.403507 502.55044,68.807016 502.55044,91.356724 Z M 521.54459,91.356724 C 521.54459,79.847952 527.90717,68.33918 541.47442,68.33918 555.13524,68.33918 561.31068,79.847952 561.31068,91.356724 561.31068,102.8655 555.50951,114.37427 541.47442,114.37427 527.06506,114.37427 521.54459,102.8655 521.54459,91.356724 Z"/>
	<path d="M 610.65715,82.093566 610.84429,82.093566 641.53435,130 659.12499,130 659.12499,52.807016 641.53435,52.807016 641.53435,100.71345 641.34721,100.71345 610.65715,52.807016 593.06651,52.807016 593.06651,130 610.65715,130 610.65715,82.093566 Z"/>
	<path d="M 675.36915,52.807016 675.36915,130 697.73172,130 C 718.97149,130 736.6557,113.90643 736.6557,91.356724 736.6557,68.900584 718.87792,52.807016 697.73172,52.807016 L 675.36915,52.807016 Z M 692.95979,114.2807 692.95979,68.526315 695.67324,68.526315 C 708.77266,68.526315 717.66155,78.538011 717.66155,91.450292 717.56798,104.36257 708.67909,114.2807 695.67324,114.2807 L 692.95979,114.2807 Z"/>
	<path d="M 849.83408,86.771929 814.18496,86.771929 814.18496,100.33918 831.96273,100.33918 C 831.96273,109.78947 823.63525,115.21637 815.2142,115.21637 804.36039,115.21637 795.56507,104.54971 795.56507,91.450292 795.56507,78.070175 804.36039,67.30994 815.2142,67.30994 822.0446,67.30994 827.93934,70.023391 832.43057,77.228069 L 843.93934,64.59649 C 837.2025,56.456139 827.75221,51.403507 814.18496,51.403507 792.47735,51.403507 776.57092,69.274853 776.57092,91.450292 776.57092,113.53216 793.41303,131.40351 814.18496,131.40351 829.34285,131.40351 845.62355,123.07602 849.83408,103.52047 L 849.83408,86.771929 Z"/>
	<path d="M 859.05627,91.356724 C 859.05627,113.90643 875.14984,131.40351 897.98025,131.40351 920.15569,131.40351 936.81066,113.90643 936.81066,91.356724 936.81066,68.807016 919.40715,51.403507 897.98025,51.403507 876.74048,51.403507 859.05627,68.807016 859.05627,91.356724 Z M 878.05042,91.356724 C 878.05042,79.847952 884.413,68.33918 897.98025,68.33918 911.64107,68.33918 917.81651,79.847952 917.81651,91.356724 917.81651,102.8655 912.01534,114.37427 897.98025,114.37427 883.57089,114.37427 878.05042,102.8655 878.05042,91.356724 Z"/>
	<path d="M 946.11041,91.356724 C 946.11041,113.90643 962.20398,131.40351 985.03439,131.40351 1007.2098,131.40351 1023.8648,113.90643 1023.8648,91.356724 1023.8648,68.807016 1006.4613,51.403507 985.03439,51.403507 963.79462,51.403507 946.11041,68.807016 946.11041,91.356724 Z M 965.10456,91.356724 C 965.10456,79.847952 971.46714,68.33918 985.03439,68.33918 998.69521,68.33918 1004.8706,79.847952 1004.8706,91.356724 1004.8706,102.8655 999.06947,114.37427 985.03439,114.37427 970.62503,114.37427 965.10456,102.8655 965.10456,91.356724 Z"/>
	<path d="M 1036.6265,52.807016 1036.6265,130 1058.989,130 C 1080.2288,130 1097.913,113.90643 1097.913,91.356724 1097.913,68.900584 1080.1352,52.807016 1058.989,52.807016 L 1036.6265,52.807016 Z M 1054.2171,114.2807 1054.2171,68.526315 1056.9306,68.526315 C 1070.03,68.526315 1078.9189,78.538011 1078.9189,91.450292 1078.8253,104.36257 1069.9364,114.2807 1056.9306,114.2807 L 1054.2171,114.2807 Z"/>
	<path d="M 500.0709,152.80702 483.7902,152.80702 452.63231,230 471.53289,230 477.24049,214.5614 506.62061,214.5614 512.32821,230 531.2288,230 500.0709,152.80702 Z M 500.63231,199.12281 483.2288,199.12281 491.83698,176.66667 492.02412,176.66667 500.63231,199.12281 Z"/>
	<path d="M 556.73903,182.09357 556.92617,182.09357 587.61623,230 605.20687,230 605.20687,152.80702 587.61623,152.80702 587.61623,200.71345 587.42909,200.71345 556.73903,152.80702 539.14839,152.80702 539.14839,230 556.73903,230 556.73903,182.09357 Z"/>
	<path d="M 621.45103,152.80702 621.45103,230 643.81361,230 C 665.05337,230 682.73758,213.90643 682.73758,191.35672 682.73758,168.90058 664.95981,152.80702 643.81361,152.80702 L 621.45103,152.80702 Z M 639.04168,214.2807 639.04168,168.52631 641.75513,168.52631 C 654.85454,168.52631 663.74343,178.53801 663.74343,191.45029 663.64986,204.36257 654.76097,214.2807 641.75513,214.2807 L 639.04168,214.2807 Z"/>
	<path d="M 770.2785,152.80702 726.11476,152.80702 726.11476,230 770.2785,230 770.2785,214.5614 743.7054,214.5614 743.7054,199.02924 769.1557,199.02924 769.1557,183.59064 743.7054,183.59064 743.7054,168.24561 770.2785,168.24561 770.2785,152.80702 Z"/>
	<path d="M 809.53145,230 823.3794,230 855.75367,152.80702 835.91741,152.80702 816.45542,203.52047 796.99344,152.80702 777.15718,152.80702 809.53145,230 Z"/>
	<path d="M 881.26391,152.80702 863.67326,152.80702 863.67326,230 881.26391,230 881.26391,152.80702 Z"/>
	<path d="M 915.13817,152.80702 897.54753,152.80702 897.54753,230 941.71127,230 941.71127,214.5614 915.13817,214.5614 915.13817,152.80702 Z"/>
	<path d="M 289.5181,332.10526 256.04441,332.10526 256.04441,390 269.23739,390 269.23739,366.77193 287.97424,366.77193 287.97424,355.19298 269.23739,355.19298 269.23739,343.68421 289.5181,343.68421 289.5181,332.10526 Z"/>
	<path d="M 300.79222,332.10526 300.79222,390 313.9852,390 313.9852,367.12281 331.66941,390 348.44134,390 328.51152,366.07018 C 335.59924,363.82456 340.37117,358 340.37117,349.29825 340.37117,337.92983 332.23081,332.10526 321.49397,332.10526 L 300.79222,332.10526 Z M 313.9852,357.78947 313.9852,342.63158 315.52906,342.63158 C 320.51152,342.63158 326.47643,342.98246 326.47643,350.21053 326.47643,357.4386 320.51152,357.78947 315.52906,357.78947 L 313.9852,357.78947 Z"/>
	<path d="M 369.28673,332.10526 356.09375,332.10526 356.09375,390 369.28673,390 369.28673,332.10526 Z"/>
	<path d="M 415.87226,332.10526 382.74945,332.10526 382.74945,390 415.87226,390 415.87226,378.42105 395.94243,378.42105 395.94243,366.77193 415.03015,366.77193 415.03015,355.19298 395.94243,355.19298 395.94243,343.68421 415.87226,343.68421 415.87226,332.10526 Z"/>
	<path d="M 428.45669,332.10526 428.45669,390 445.22862,390 C 461.15844,390 474.4216,377.92982 474.4216,361.01754 474.4216,344.17544 461.08827,332.10526 445.22862,332.10526 L 428.45669,332.10526 Z M 441.64967,378.21053 441.64967,343.89474 443.68476,343.89474 C 453.50932,343.89474 460.17599,351.40351 460.17599,361.08772 460.10581,370.77193 453.43914,378.21053 443.68476,378.21053 L 441.64967,378.21053 Z"/>
	<path d="M 485.26591,332.10526 485.26591,390 498.45889,390 498.45889,367.12281 516.1431,390 532.91503,390 512.98521,366.07018 C 520.07293,363.82456 524.84486,358 524.84486,349.29825 524.84486,337.92983 516.7045,332.10526 505.96766,332.10526 L 485.26591,332.10526 Z M 498.45889,357.78947 498.45889,342.63158 500.00275,342.63158 C 504.98521,342.63158 510.95012,342.98246 510.95012,350.21053 510.95012,357.4386 504.98521,357.78947 500.00275,357.78947 L 498.45889,357.78947 Z"/>
	<path d="M 553.7604,332.10526 540.56742,332.10526 540.56742,390 553.7604,390 553.7604,332.10526 Z"/>
	<path d="M 595.83718,378.07018 C 582.57402,378.07018 576.74946,368.80702 576.74946,361.01754 576.74946,353.29825 582.57402,344.03509 595.83718,344.03509 602.57402,344.03509 607.2056,347.61404 607.2056,347.61404 L 612.81963,336.38597 C 612.81963,336.38597 606.36349,331.05263 593.80209,331.05263 577.38104,331.05263 562.43367,344.52632 562.43367,361.1579 562.43367,377.7193 577.45121,391.05263 593.80209,391.05263 606.36349,391.05263 612.81963,385.7193 612.81963,385.7193 L 607.2056,374.49123 C 607.2056,374.49123 602.57402,378.07018 595.83718,378.07018 Z"/>
	<path d="M 636.12884,366.77193 654.79551,366.77193 654.79551,390 667.98849,390 667.98849,332.10526 654.79551,332.10526 654.79551,355.19298 636.12884,355.19298 636.12884,332.10526 622.93586,332.10526 622.93586,390 636.12884,390 636.12884,366.77193 Z"/>
	<path d="M 718.77139,354.07018 718.91174,354.07018 741.92929,390 755.12227,390 755.12227,332.10526 741.92929,332.10526 741.92929,368.03509 741.78893,368.03509 718.77139,332.10526 705.57841,332.10526 705.57841,390 718.77139,390 718.77139,354.07018 Z"/>
	<path d="M 781.74838,332.10526 768.5554,332.10526 768.5554,390 781.74838,390 781.74838,332.10526 Z"/>
	<path d="M 828.33391,332.10526 795.2111,332.10526 795.2111,390 828.33391,390 828.33391,378.42105 808.40408,378.42105 808.40408,366.77193 827.4918,366.77193 827.4918,355.19298 808.40408,355.19298 808.40408,343.68421 828.33391,343.68421 828.33391,332.10526 Z"/>
	<path d="M 837.26919,343.68421 851.02358,343.68421 851.02358,390 864.21656,390 864.21656,343.68421 877.97094,343.68421 877.97094,332.10526 837.26919,332.10526 837.26919,343.68421 Z"/>
	<path d="M 936.3536,332.10526 888.70448,332.10526 888.70448,343.68421 913.26588,343.68421 884.6343,390 934.45887,390 934.45887,378.42105 907.65185,378.42105 936.3536,332.10526 Z"/>
	<path d="M 966.68695,331.05263 C 957.35362,331.05263 947.80976,337.92983 947.80976,348.73684 947.80976,354.77193 951.87993,360.17544 958.8273,363.61404 965.70449,367.05263 971.87993,368.94737 971.87993,373.15789 971.87993,378.5614 966.40625,378.84211 963.52905,378.84211 957.07291,378.84211 949.35362,372.31579 949.35362,372.31579 L 942.75712,383.40351 C 942.75712,383.40351 950.96765,391.05263 964.51151,391.05263 975.80976,391.05263 986.33607,386.21053 986.33607,372.38597 986.33607,364.80702 979.24835,359.33333 972.79221,356.59649 966.19572,353.78947 960.72204,351.47368 960.72204,348.24561 960.72204,345.08772 963.108,343.05263 967.59923,343.05263 973.56414,343.05263 979.31853,347.05263 979.31853,347.05263 L 984.65186,336.52632 C 984.65186,336.52632 977.21326,331.05263 966.68695,331.05263 Z"/>
	<path d="M 1026.1167,378.07018 C 1012.8536,378.07018 1007.029,368.80702 1007.029,361.01754 1007.029,353.29825 1012.8536,344.03509 1026.1167,344.03509 1032.8536,344.03509 1037.4852,347.61404 1037.4852,347.61404 L 1043.0992,336.38597 C 1043.0992,336.38597 1036.6431,331.05263 1024.0817,331.05263 1007.6606,331.05263 992.71324,344.52632 992.71324,361.1579 992.71324,377.7193 1007.7308,391.05263 1024.0817,391.05263 1036.6431,391.05263 1043.0992,385.7193 1043.0992,385.7193 L 1037.4852,374.49123 C 1037.4852,374.49123 1032.8536,378.07018 1026.1167,378.07018 Z"/>
	<path d="M 1066.4084,366.77193 1085.0751,366.77193 1085.0751,390 1098.2681,390 1098.2681,332.10526 1085.0751,332.10526 1085.0751,355.19298 1066.4084,355.19298 1066.4084,332.10526 1053.2154,332.10526 1053.2154,390 1066.4084,390 1066.4084,366.77193 Z"/>
	<path d="M 1144.7922,332.10526 1111.6694,332.10526 1111.6694,390 1144.7922,390 1144.7922,378.42105 1124.8624,378.42105 1124.8624,366.77193 1143.9501,366.77193 1143.9501,355.19298 1124.8624,355.19298 1124.8624,343.68421 1144.7922,343.68421 1144.7922,332.10526 Z"/>
	<path d="M 594.75525,563.42189 C 594.75525,564.61212 597.26322,563.67694 597.26322,564.56961 597.26322,565.71732 595.47789,572.60361 595.47789,576.51435 595.47789,579.82997 597.05068,580.5101 598.1984,580.5101 600.83389,580.5101 604.44707,577.61955 604.44707,576.51435 604.44707,575.91923 604.107,575.91923 603.97948,575.91923 603.29935,575.91923 602.32167,577.78959 599.98373,577.78959 599.8137,577.78959 598.2409,577.70457 598.2409,575.45165 598.2409,574.77152 599.21859,569.24548 599.60116,566.60999 599.85621,564.86716 599.72868,564.10202 600.96141,564.10202 601.89659,564.10202 603.72443,564.31456 604.40456,564.31456 605.1697,564.31456 605.42475,564.05951 605.42475,563.08183 605.42475,562.57173 605.21221,562.27418 604.31954,562.27418 603.85196,562.27418 603.51189,562.31668 601.85408,562.31668 600.45132,562.31668 600.3663,562.27418 600.3663,562.01913 600.3663,561.38151 601.13145,559.38364 601.13145,558.83103 601.13145,558.44846 600.91891,558.32094 600.70637,558.32094 600.02624,558.32094 599.94122,558.87354 598.2409,560.65887 596.37055,562.61424 594.75525,562.57173 594.75525,563.42189 Z"/>
	<path d="M 606.86272,567.41764 C 606.86272,568.01275 607.20278,568.14028 607.37281,568.14028 607.58535,568.14028 607.71287,568.01275 607.8404,567.88523 608.09545,567.58767 608.43551,565.03719 610.17834,565.03719 610.94348,565.03719 611.62361,565.80234 611.62361,567.92774 611.62361,571.11583 609.79577,577.36451 609.79577,579.06482 609.79577,580.08502 610.64592,580.17003 611.071,580.17003 L 611.28354,580.17003 C 612.81383,580.17003 612.72882,580.17003 613.66399,572.94368 L 613.87653,571.54091 C 614.08907,569.75558 615.15177,564.18704 617.06463,564.18704 618.59491,564.18704 618.42488,565.97237 619.36006,565.97237 620.1252,565.97237 620.21022,564.65462 620.29523,564.35707 620.42276,563.88948 620.76282,563.33688 620.76282,562.78427 620.76282,562.18916 620.29523,561.46653 619.19003,561.46653 616.04444,561.46653 613.91904,565.84485 613.62148,565.84485 613.53647,565.84485 613.49396,565.80234 612.43126,563.03932 612.17621,562.35919 611.75113,561.55154 610.85846,561.55154 610.47589,561.55154 606.86272,562.57173 606.86272,567.41764 Z"/>
	<path d="M 620.45398,575.15409 C 620.45398,577.91711 620.96407,580.63762 625.00233,580.63762 629.04059,580.63762 632.56875,575.53666 632.78129,575.53666 633.07884,575.53666 632.69627,580.29756 635.41678,580.29756 636.5645,580.29756 638.47735,578.34219 639.54005,576.8119 640.09266,576.04676 640.3052,575.40914 640.3052,574.98406 640.3052,574.81403 640.26269,574.51647 639.92263,574.51647 639.11497,574.51647 638.22231,577.27949 636.81954,577.27949 636.01189,577.27949 635.37427,575.87673 635.37427,574.77152 635.37427,573.15622 635.79935,571.20085 636.13942,569.3305 636.47948,567.41764 636.73453,565.46227 637.1171,563.88948 637.41466,562.65675 637.96726,561.63656 637.96726,560.95643 637.96726,560.48884 637.75472,560.31881 637.49967,560.31881 636.64951,560.31881 636.13942,562.4017 635.28926,562.4017 633.88649,562.4017 632.99383,561.93411 631.67608,561.93411 630.57087,561.93411 629.72071,562.14665 628.573,562.69926 626.32008,563.76196 624.36471,565.80234 622.83442,568.22529 621.51667,570.35069 620.45398,572.77365 620.45398,575.15409 Z M 623.42953,574.89904 C 623.42953,574.1339 623.51455,573.36876 623.64207,572.60361 624.02465,570.3932 625.04484,568.48034 626.27757,566.43996 627.55281,564.27205 629.80573,562.99681 631.54856,562.99681 632.44122,562.99681 634.35408,563.29437 634.35408,564.48459 634.35408,564.61212 633.20637,572.43358 632.18618,574.47396 631.8036,575.23911 629.80573,578.29968 626.74516,578.29968 624.95982,578.29968 623.42953,577.02444 623.42953,574.89904 Z"/>
	<path d="M 641.69999,566.35494 C 641.69999,566.82253 641.78501,567.16259 642.08256,567.16259 643.01774,567.16259 643.48533,564.78215 644.80307,564.78215 645.22815,564.78215 645.78076,565.63231 645.78076,567.12009 645.78076,570.3932 643.9104,576.98193 643.9104,578.76727 643.9104,580 644.25047,580.08502 645.39818,580.08502 646.50339,580.08502 646.84345,579.91498 646.97098,578.97981 647.05599,578.3847 646.75844,578.89479 647.82114,573.15622 648.84133,567.67269 648.33123,568.05526 650.15908,565.46227 651.13676,564.05951 651.94441,563.59192 652.92209,563.59192 655.68511,563.59192 655.89765,566.39745 655.89765,567.07758 655.89765,568.65037 655.00498,574.34644 655.00498,577.57705 655.00498,579.06482 655.72762,580.25505 656.57778,580.25505 658.44813,580.25505 662.18883,577.27949 662.18883,575.62168 662.18883,575.36663 662.10382,575.11158 661.80626,575.11158 661.16864,575.11158 660.99861,575.62168 660.48851,576.2593 660.48851,576.2593 659.51083,577.19447 658.78819,577.19447 658.32061,577.19447 657.98054,576.85441 657.98054,575.66419 657.98054,574.21892 658.70318,569.71307 658.70318,566.73751 658.70318,564.05951 658.10807,561.42402 655.13251,561.42402 653.34717,561.42402 651.09425,562.9543 649.94654,563.84697 648.37374,565.03719 648.07619,565.97237 647.82114,565.97237 647.43857,565.97237 648.33123,561.50903 645.86577,561.50903 644.25047,561.50903 641.69999,564.69713 641.69999,566.35494 Z"/>
	<path d="M 663.65071,577.70457 C 663.65071,579.95749 666.71128,580.5101 668.36909,580.5101 673.81011,580.5101 675.00034,576.47184 675.00034,574.94155 675.00034,572.09352 673.38503,570.90329 672.06729,569.41552 671.0471,568.31031 668.70916,566.56748 668.70916,564.95218 668.70916,563.67694 669.34678,562.69926 670.96208,562.69926 672.61989,562.69926 672.78992,565.0797 674.32021,565.0797 674.53275,565.0797 675.93551,564.95218 675.93551,563.63443 675.93551,561.97662 674.2777,561.42402 671.98227,561.42402 668.66665,561.42402 666.20119,563.37938 666.20119,566.22742 666.20119,568.7779 667.81649,569.8831 669.51681,571.62593 671.0471,573.15622 672.44986,574.38895 672.44986,576.38682 672.44986,576.89692 672.1523,579.10733 669.04922,579.10733 666.45623,579.10733 667.17887,576.17428 665.01096,576.17428 664.50087,576.17428 663.65071,576.38682 663.65071,577.70457 Z"/>
	<path d="M 678.75033,576.34431 C 678.75033,580.34006 679.98306,580.34006 680.83322,580.34006 681.64087,580.34006 683.42621,579.4899 684.53142,578.21467 685.55161,577.02444 686.65681,575.57917 686.65681,575.15409 686.65681,574.72901 686.44427,574.47396 686.14672,574.47396 685.04151,574.47396 684.61643,577.49203 682.27849,577.49203 681.72589,577.49203 681.59837,577.27949 681.59837,575.83422 681.59837,574.38895 682.10846,571.71095 682.8311,566.69501 684.19135,557.55579 683.46872,559.12859 685.04151,550.88204 685.16903,550.07439 685.46659,549.52179 685.46659,548.92667 685.46659,548.5016 685.25405,548.24655 684.57392,548.24655 683.46872,548.24655 682.53354,548.67163 679.43046,548.88417 678.87786,548.92667 678.79284,549.26674 678.79284,549.47928 678.79284,549.94687 679.17541,550.07439 680.02557,550.07439 680.53567,550.07439 680.62068,550.03188 681.2583,550.03188 681.89592,550.03188 682.321,550.37195 682.321,550.88204 682.321,551.39214 681.68338,555.21785 680.96075,559.80871 680.53567,562.52922 680.32313,565.54729 679.94055,568.22529 679.85554,568.90542 678.75033,573.92136 678.75033,576.34431 Z"/>
	<path d="M 689.28036,575.15409 C 689.28036,577.91711 689.79045,580.63762 693.82871,580.63762 697.86697,580.63762 701.39513,575.53666 701.60767,575.53666 701.90522,575.53666 701.52265,580.29756 704.24316,580.29756 705.39088,580.29756 707.30374,578.34219 708.36644,576.8119 708.91904,576.04676 709.13158,575.40914 709.13158,574.98406 709.13158,574.81403 709.08907,574.51647 708.74901,574.51647 707.94136,574.51647 707.04869,577.27949 705.64593,577.27949 704.83827,577.27949 704.20065,575.87673 704.20065,574.77152 704.20065,573.15622 704.62573,571.20085 704.9658,569.3305 705.30586,567.41764 705.56091,565.46227 705.94348,563.88948 706.24104,562.65675 706.79364,561.63656 706.79364,560.95643 706.79364,560.48884 706.5811,560.31881 706.32605,560.31881 705.47589,560.31881 704.9658,562.4017 704.11564,562.4017 702.71288,562.4017 701.82021,561.93411 700.50246,561.93411 699.39725,561.93411 698.54709,562.14665 697.39938,562.69926 695.14646,563.76196 693.19109,565.80234 691.6608,568.22529 690.34306,570.35069 689.28036,572.77365 689.28036,575.15409 Z M 692.25592,574.89904 C 692.25592,574.1339 692.34093,573.36876 692.46845,572.60361 692.85103,570.3932 693.87122,568.48034 695.10395,566.43996 696.37919,564.27205 698.63211,562.99681 700.37494,562.99681 701.2676,562.99681 703.18046,563.29437 703.18046,564.48459 703.18046,564.61212 702.03275,572.43358 701.01256,574.47396 700.62999,575.23911 698.63211,578.29968 695.57154,578.29968 693.7862,578.29968 692.25592,577.02444 692.25592,574.89904 Z"/>
	<path d="M 711.15402,563.42189 C 711.15402,564.61212 713.66199,563.67694 713.66199,564.56961 713.66199,565.71732 711.87666,572.60361 711.87666,576.51435 711.87666,579.82997 713.44945,580.5101 714.59717,580.5101 717.23266,580.5101 720.84584,577.61955 720.84584,576.51435 720.84584,575.91923 720.50578,575.91923 720.37825,575.91923 719.69813,575.91923 718.72044,577.78959 716.3825,577.78959 716.21247,577.78959 714.63968,577.70457 714.63968,575.45165 714.63968,574.77152 715.61736,569.24548 715.99993,566.60999 716.25498,564.86716 716.12746,564.10202 717.36019,564.10202 718.29536,564.10202 720.12321,564.31456 720.80333,564.31456 721.56848,564.31456 721.82352,564.05951 721.82352,563.08183 721.82352,562.57173 721.61098,562.27418 720.71832,562.27418 720.25073,562.27418 719.91067,562.31668 718.25285,562.31668 716.85009,562.31668 716.76508,562.27418 716.76508,562.01913 716.76508,561.38151 717.53022,559.38364 717.53022,558.83103 717.53022,558.44846 717.31768,558.32094 717.10514,558.32094 716.42501,558.32094 716.34,558.87354 714.63968,560.65887 712.76933,562.61424 711.15402,562.57173 711.15402,563.42189 Z"/>
	<path d="M 723.40296,573.75133 C 723.40296,577.53454 724.72071,580.5101 730.11922,580.5101 733.81741,580.5101 737.51561,577.53454 737.51561,576.55685 737.51561,576.30181 737.34558,576.13177 737.00551,576.13177 736.53792,576.13177 734.83761,577.95962 732.41465,577.95962 728.20636,577.95962 726.2935,575.83422 726.2935,572.64612 726.2935,571.54091 726.42103,570.90329 727.01614,570.90329 731.01189,570.86079 733.30732,569.92561 733.68989,569.75558 734.49754,569.41552 737.81316,567.67269 737.81316,564.61212 737.81316,562.74176 736.11284,561.46653 734.11497,561.46653 731.73452,561.46653 729.77916,562.23167 728.20636,563.71945 725.27331,566.43996 723.40296,570.09564 723.40296,573.75133 Z M 726.88862,569.3305 C 726.88862,568.7779 727.8663,566.05739 729.14154,564.73964 730.24674,563.59192 731.56449,562.74176 732.62719,562.74176 733.34983,562.74176 734.88011,563.12434 734.88011,564.73964 734.88011,567.41764 731.39446,570.18066 727.27119,570.18066 726.97363,570.18066 726.88862,569.62806 726.88862,569.3305 Z"/>
	<path d="M 739.86816,574.6865 C 739.86816,577.8746 741.35593,580.34006 744.96911,580.34006 749.1774,580.34006 751.34531,575.57917 751.72788,575.57917 752.32299,575.57917 751.34531,580.34006 754.32087,580.34006 757.08388,580.34006 759.76189,576.04676 759.76189,575.15409 759.76189,574.98406 759.63436,574.77152 759.2943,574.77152 758.61417,574.77152 757.63649,577.40701 755.76614,577.40701 754.78845,577.40701 754.66093,576.51435 754.66093,575.57917 754.66093,574.30393 755.08601,571.62593 755.5536,568.39532 757.93404,551.00957 758.35912,549.64931 758.35912,548.5441 758.35912,548.16153 758.06157,547.82147 757.67899,547.82147 756.53128,547.82147 756.78633,547.90648 754.40588,548.5016 753.21566,548.79915 751.72788,548.62912 751.72788,549.35175 751.72788,549.64931 751.98293,549.81934 752.40801,549.81934 752.45051,549.81934 753.4282,549.77683 753.89579,549.77683 754.53341,549.77683 755.12852,550.20191 755.12852,550.83953 755.12852,551.13709 753.72575,562.31668 753.59823,562.31668 752.40801,562.31668 751.55785,561.76408 750.45264,561.76408 745.39419,561.76408 739.86816,568.09777 739.86816,574.6865 Z M 742.84371,573.49628 C 742.84371,569.03294 746.32937,562.65675 750.2401,562.65675 751.38782,562.65675 753.08813,563.20935 753.08813,564.35707 753.08813,566.05739 752.45051,573.53879 750.7502,575.66419 749.64499,577.06695 747.98718,577.8746 746.45689,577.8746 743.8639,577.8746 742.84371,575.96174 742.84371,573.49628 Z"/>
	<path d="M 771.07033,576.98193 C 771.07033,579.4474 773.74833,580.5526 776.2563,580.5526 782.84504,580.5526 787.86098,572.94368 787.86098,567.16259 787.86098,564.39958 786.3732,561.76408 783.1851,561.76408 778.29668,561.76408 776.29881,565.71732 775.7037,565.71732 775.61868,565.71732 775.49116,565.37726 775.49116,565.0797 775.49116,562.01913 778.21167,549.35175 778.21167,548.58661 778.21167,548.11902 777.8716,547.82147 777.40402,547.82147 777.14897,547.82147 776.38383,548.07652 774.72601,548.28906 772.77065,548.5441 771.58043,548.5016 771.58043,549.35175 771.58043,549.94687 771.92049,549.94687 772.38808,549.94687 773.0257,549.94687 773.49328,549.86185 774.1309,549.86185 774.98106,549.86185 775.1936,550.15941 775.1936,550.37195 775.1936,551.39214 774.93855,552.87992 774.55598,554.70776 773.91836,557.85335 773.40827,561.97662 772.64312,566.39745 772.04801,569.8406 771.07033,574.26142 771.07033,576.98193 Z M 773.87586,576.47184 C 773.87586,576.04676 774.34344,571.49841 775.57617,568.14028 776.93643,564.44208 779.69945,564.017 780.71964,564.017 783.05758,564.017 784.88542,565.97237 784.88542,568.35282 784.88542,573.24123 780.97469,579.36238 777.14897,579.36238 774.51348,579.36238 773.87586,577.91711 773.87586,576.47184 Z"/>
	<path d="M 789.50617,585.3135 C 789.50617,587.26886 791.20649,587.82147 793.03433,587.82147 797.03008,587.82147 799.75059,582.97556 801.74847,577.91711 804.25644,571.58342 805.27663,565.71732 805.27663,563.80446 805.27663,562.48672 804.55399,561.55154 803.61882,561.55154 802.59863,561.55154 802.17355,562.35919 802.17355,563.12434 802.17355,564.27205 803.23625,565.12221 803.23625,566.35494 803.23625,569.20298 802.30107,573.75133 801.70596,573.75133 801.23837,573.75133 797.20011,561.67907 793.07684,561.67907 790.48385,561.67907 789.6337,565.37726 789.6337,567.16259 789.6337,567.88523 789.80373,568.09777 790.05877,568.09777 791.33401,568.09777 790.44135,564.90967 792.90681,564.90967 795.15973,564.90967 799.83561,575.87673 799.83561,578.25717 799.83561,579.87248 797.03008,585.3135 794.56462,585.3135 792.60925,585.3135 792.56675,583.91073 790.86643,583.91073 790.14379,583.91073 789.50617,584.59086 789.50617,585.3135 Z"/>
	<path d="M 478.6144,624.51462 491.05884,624.51462 491.05884,640 499.85416,640 499.85416,601.40351 491.05884,601.40351 491.05884,616.79532 478.6144,616.79532 478.6144,601.40351 469.81908,601.40351 469.81908,640 478.6144,640 478.6144,624.51462 Z"/>
	<path d="M 532.53691,601.40351 510.45504,601.40351 510.45504,640 532.53691,640 532.53691,632.2807 519.25036,632.2807 519.25036,624.51462 531.97551,624.51462 531.97551,616.79532 519.25036,616.79532 519.25036,609.12281 532.53691,609.12281 532.53691,601.40351 Z"/>
	<path d="M 551.38852,601.40351 542.5932,601.40351 542.5932,640 564.67507,640 564.67507,632.2807 551.38852,632.2807 551.38852,601.40351 Z"/>
	<path d="M 596.08224,601.40351 574.00037,601.40351 574.00037,640 596.08224,640 596.08224,632.2807 582.79569,632.2807 582.79569,624.51462 595.52083,624.51462 595.52083,616.79532 582.79569,616.79532 582.79569,609.12281 596.08224,609.12281 596.08224,601.40351 Z"/>
	<path d="M 614.93384,616.04678 615.02741,616.04678 630.37244,640 639.16776,640 639.16776,601.40351 630.37244,601.40351 630.37244,625.35672 630.27887,625.35672 614.93384,601.40351 606.13852,601.40351 606.13852,640 614.93384,640 614.93384,616.04678 Z"/>
	<path d="M 700.0033,601.40351 668.23721,601.40351 668.23721,609.12281 684.61148,609.12281 665.52376,640 698.74014,640 698.74014,632.2807 680.86879,632.2807 700.0033,601.40351 Z"/>
	<path d="M 717.37902,601.40351 708.58369,601.40351 708.58369,640 717.37902,640 717.37902,601.40351 Z"/>
	<path d="M 759.92726,640 768.72258,640 765.26059,601.40351 755.90387,601.40351 747.34246,623.67251 738.78106,601.40351 729.42434,601.40351 725.96235,640 734.75767,640 736.58223,617.12281 736.81615,617.12281 744.72258,639.76608 749.96235,639.76608 757.86878,617.12281 758.1027,617.12281 759.92726,640 Z"/>
	<path d="M 809.15242,640 817.94774,640 814.48575,601.40351 805.12903,601.40351 796.56762,623.67251 788.00622,601.40351 778.64949,601.40351 775.18751,640 783.98283,640 785.80739,617.12281 786.04131,617.12281 793.94774,639.76608 799.18751,639.76608 807.09394,617.12281 807.32786,617.12281 809.15242,640 Z"/>
	<path d="M 848.55299,601.40351 826.47111,601.40351 826.47111,640 848.55299,640 848.55299,632.2807 835.26644,632.2807 835.26644,624.51462 847.99158,624.51462 847.99158,616.79532 835.26644,616.79532 835.26644,609.12281 848.55299,609.12281 848.55299,601.40351 Z"/>
	<path d="M 858.6093,601.40351 858.6093,640 867.40462,640 867.40462,624.74854 879.19409,640 890.37538,640 877.08883,624.04678 C 881.81398,622.54971 884.99526,618.66667 884.99526,612.8655 884.99526,605.28655 879.56836,601.40351 872.41047,601.40351 L 858.6093,601.40351 Z M 867.40462,618.52632 867.40462,608.42105 868.43386,608.42105 C 871.7555,608.42105 875.7321,608.65497 875.7321,613.47368 875.7321,618.2924 871.7555,618.52632 868.43386,618.52632 L 867.40462,618.52632 Z"/>
	<path d="M 905.93898,616.04678 906.03255,616.04678 921.37758,640 930.1729,640 930.1729,601.40351 921.37758,601.40351 921.37758,625.35672 921.28401,625.35672 905.93898,601.40351 897.14366,601.40351 897.14366,640 905.93898,640 905.93898,616.04678 Z"/>
</svg>
